<?xml version="1.0" standalone="no"?>
<!DOCTYPE svg PUBLIC "-//W3C//DTD SVG 20010904//EN"
 "http://www.w3.org/TR/2001/REC-SVG-20010904/DTD/svg10.dtd">
<svg version="1.0" xmlns="http://www.w3.org/2000/svg"
 width="300.000000pt" height="320.000000pt" viewBox="0 0 300.000000 320.000000"
 preserveAspectRatio="xMidYMid meet">
<metadata>
Created by potrace 1.10, written by Peter Selinger 2001-2011
</metadata>
<g transform="translate(0.000000,320.000000) scale(0.100000,-0.100000)"
fill="#000000" stroke="none">
<path d="M1407 3186 c-58 -21 -100 -59 -132 -117 l-30 -54 -3 -482 c-2 -266
-4 -483 -6 -483 -2 0 -180 103 -397 228 -217 126 -409 234 -428 240 -203 71
-400 -155 -307 -353 13 -28 37 -62 53 -76 17 -14 208 -128 427 -254 218 -127
396 -232 396 -235 0 -3 -178 -108 -396 -235 -219 -126 -410 -240 -427 -254
-44 -37 -77 -115 -77 -181 0 -93 61 -194 143 -236 42 -22 136 -29 182 -14 21
7 215 115 433 241 217 126 397 229 398 229 2 0 4 -200 4 -444 0 -244 3 -464 6
-490 10 -68 59 -144 118 -181 45 -27 57 -30 136 -30 79 0 91 3 136 30 59 37
108 113 118 181 3 26 6 246 6 490 0 244 2 444 3 444 2 0 172 -97 378 -216 463
-268 463 -268 543 -262 71 6 110 24 156 70 70 69 96 176 68 269 -24 80 -56
104 -482 350 -223 129 -406 236 -406 239 0 3 136 84 303 179 564 326 539 309
576 391 42 92 17 212 -59 288 -46 46 -85 64 -156 70 -80 6 -80 6 -543 -262
-206 -119 -376 -216 -378 -216 -1 0 -3 200 -3 444 0 244 -3 464 -6 490 -10 67
-59 144 -117 180 -38 23 -61 30 -120 33 -46 2 -86 -2 -110 -11z"/>
</g>
</svg>
