<svg width="84" height="69" viewBox="0 0 84 69" fill="none" xmlns="http://www.w3.org/2000/svg">
<g filter="url(#filter0_d)">
<path d="M60.0178 22.4453L59.0568 24.1267C58.7052 24.7499 57.9551 25.0086 57.2871 24.7617C55.9042 24.2443 54.6384 23.5035 53.5251 22.5746C52.9859 22.1278 52.8453 21.34 53.1969 20.7285L54.1579 19.0471C53.3493 18.1064 52.7164 17.0129 52.2945 15.8253H50.3607C49.6575 15.8253 49.0481 15.3197 48.9309 14.6142C48.6965 13.2032 48.6848 11.7216 48.9309 10.2518C49.0481 9.54633 49.6575 9.02896 50.3607 9.02896H52.2945C52.7164 7.84137 53.3493 6.74784 54.1579 5.80717L53.1969 4.12573C52.8453 3.51429 52.9742 2.72648 53.5251 2.27967C54.6384 1.35076 55.9159 0.609979 57.2871 0.0926109C57.9551 -0.154315 58.7052 0.104369 59.0568 0.727562L60.0178 2.40901C61.2483 2.1856 62.5024 2.1856 63.7329 2.40901L64.6939 0.727562C65.0455 0.104369 65.7956 -0.154315 66.4636 0.0926109C67.8465 0.609979 69.1123 1.35076 70.2257 2.27967C70.7648 2.72648 70.9054 3.51429 70.5538 4.12573L69.5928 5.80717C70.4014 6.74784 71.0343 7.84137 71.4562 9.02896H73.39C74.0932 9.02896 74.7026 9.53457 74.8198 10.2401C75.0542 11.6511 75.0659 13.1326 74.8198 14.6024C74.7026 15.3079 74.0932 15.8253 73.39 15.8253H71.4562C71.0343 17.0129 70.4014 18.1064 69.5928 19.0471L70.5538 20.7285C70.9054 21.34 70.7765 22.1278 70.2257 22.5746C69.1123 23.5035 67.8348 24.2443 66.4636 24.7617C65.7956 25.0086 65.0455 24.7499 64.6939 24.1267L63.7329 22.4453C62.5141 22.6687 61.2483 22.6687 60.0178 22.4453ZM58.7872 15.5313C63.2993 19.0118 68.4443 13.8499 64.9752 9.32292C60.4631 5.83069 55.3182 11.0044 58.7872 15.5313ZM45.2744 33.6275L49.2239 35.6029C50.4076 36.2848 50.9233 37.7311 50.4545 39.0245C49.4114 41.8701 47.3605 44.4804 45.4619 46.7615C44.5946 47.808 43.0945 48.0667 41.9108 47.3847L38.5004 45.4093C36.6252 47.0202 34.4454 48.3019 32.0662 49.1367V53.0875C32.0662 54.4515 31.0935 55.6273 29.7575 55.8625C26.8744 56.3564 23.8507 56.3799 20.8622 55.8625C19.5144 55.6273 18.5183 54.4633 18.5183 53.0875V49.1367C16.1392 48.2901 13.9593 47.0202 12.0841 45.4093L8.67369 47.373C7.50172 48.055 5.98988 47.7963 5.12262 46.7498C3.22402 44.4687 1.21995 41.8583 0.176896 39.0245C-0.291892 37.7429 0.223775 36.2966 1.40747 35.6029L5.31013 33.6275C4.85306 31.17 4.85306 28.6419 5.31013 26.1727L1.40747 24.1855C0.223775 23.5035 -0.303612 22.0572 0.176896 20.7756C1.21995 17.93 3.22402 15.3197 5.12262 13.0386C5.98988 11.9921 7.49 11.7334 8.67369 12.4154L12.0841 14.3908C13.9593 12.7799 16.1392 11.4982 18.5183 10.6634V6.70081C18.5183 5.3486 19.4793 4.17276 20.8153 3.93759C23.6984 3.44374 26.7338 3.42023 29.7223 3.92584C31.0701 4.161 32.0662 5.32508 32.0662 6.70081V10.6516C34.4454 11.4982 36.6252 12.7681 38.5004 14.379L41.9108 12.4036C43.0828 11.7216 44.5946 11.9803 45.4619 13.0268C47.3605 15.3079 49.3528 17.9183 50.3959 20.7638C50.8647 22.0455 50.4076 23.4917 49.2239 24.1855L45.2744 26.1609C45.7314 28.6302 45.7314 31.1582 45.2744 33.6275ZM31.492 36.1085C38.4301 27.0545 28.1284 16.7189 19.1042 23.6799C12.1662 32.7338 22.4678 43.0694 31.492 36.1085ZM60.0178 57.591L59.0568 59.2724C58.7052 59.8956 57.9551 60.1543 57.2871 59.9074C55.9042 59.39 54.6384 58.6492 53.5251 57.7203C52.9859 57.2735 52.8453 56.4857 53.1969 55.8743L54.1579 54.1928C53.3493 53.2522 52.7164 52.1586 52.2945 50.971H50.3607C49.6575 50.971 49.0481 50.4654 48.9309 49.7599C48.6965 48.3489 48.6848 46.8674 48.9309 45.3976C49.0481 44.6921 49.6575 44.1747 50.3607 44.1747H52.2945C52.7164 42.9871 53.3493 41.8936 54.1579 40.9529L53.1969 39.2715C52.8453 38.66 52.9742 37.8722 53.5251 37.4254C54.6384 36.4965 55.9159 35.7557 57.2871 35.2383C57.9551 34.9914 58.7052 35.2501 59.0568 35.8733L60.0178 37.5547C61.2483 37.3313 62.5024 37.3313 63.7329 37.5547L64.6939 35.8733C65.0455 35.2501 65.7956 34.9914 66.4636 35.2383C67.8465 35.7557 69.1123 36.4965 70.2257 37.4254C70.7648 37.8722 70.9054 38.66 70.5538 39.2715L69.5928 40.9529C70.4014 41.8936 71.0343 42.9871 71.4562 44.1747H73.39C74.0932 44.1747 74.7026 44.6803 74.8198 45.3858C75.0542 46.7968 75.0659 48.2784 74.8198 49.7482C74.7026 50.4537 74.0932 50.971 73.39 50.971H71.4562C71.0343 52.1586 70.4014 53.2522 69.5928 54.1928L70.5538 55.8743C70.9054 56.4857 70.7765 57.2735 70.2257 57.7203C69.1123 58.6492 67.8348 59.39 66.4636 59.9074C65.7956 60.1543 65.0455 59.8956 64.6939 59.2724L63.7329 57.591C62.5141 57.8144 61.2483 57.8144 60.0178 57.591ZM58.7872 50.6653C63.2993 54.1458 68.4443 48.9839 64.9752 44.4569C60.4631 40.9764 55.3182 46.1383 58.7872 50.6653Z" fill="#563D7C"/>
</g>
<defs>
<filter id="filter0_d" x="0" y="0" width="84" height="69" filterUnits="userSpaceOnUse" color-interpolation-filters="sRGB">
<feFlood flood-opacity="0" result="BackgroundImageFix"/>
<feColorMatrix in="SourceAlpha" type="matrix" values="0 0 0 0 0 0 0 0 0 0 0 0 0 0 0 0 0 0 127 0"/>
<feOffset dx="5" dy="5"/>
<feGaussianBlur stdDeviation="2"/>
<feColorMatrix type="matrix" values="0 0 0 0 0 0 0 0 0 0 0 0 0 0 0 0 0 0 0.25 0"/>
<feBlend mode="normal" in2="BackgroundImageFix" result="effect1_dropShadow"/>
<feBlend mode="normal" in="SourceGraphic" in2="effect1_dropShadow" result="shape"/>
</filter>
</defs>
</svg>
