<?xml version="1.0" standalone="no"?>
<!DOCTYPE svg PUBLIC "-//W3C//DTD SVG 20010904//EN"
 "http://www.w3.org/TR/2001/REC-SVG-20010904/DTD/svg10.dtd">
<svg version="1.0" xmlns="http://www.w3.org/2000/svg"
 width="300.000000pt" height="300.000000pt" viewBox="0 0 300.000000 300.000000"
 preserveAspectRatio="xMidYMid meet">
<metadata>
Created by potrace 1.10, written by Peter Selinger 2001-2011
</metadata>
<g transform="translate(0.000000,300.000000) scale(0.100000,-0.100000)"
fill="#000000" stroke="none">
<path d="M1380 2629 l0 -371 -32 6 c-18 4 -83 9 -144 13 -397 21 -718 -177
-829 -511 -75 -223 -60 -491 37 -694 42 -86 167 -213 254 -259 79 -42 218 -87
319 -104 162 -27 490 -15 768 28 l107 17 0 1123 0 1123 -240 0 -240 0 0 -371z
m-17 -760 l37 -10 0 -393 0 -394 -31 -6 c-60 -12 -224 -6 -280 10 -163 47
-252 182 -253 384 -1 215 86 352 257 405 51 16 218 19 270 4z"/>
<path d="M2140 2755 l0 -245 240 0 240 0 0 245 0 245 -240 0 -240 0 0 -245z"/>
<path d="M2187 2214 c-3 -4 -7 -295 -7 -648 0 -366 -5 -680 -10 -731 -21 -184
-79 -329 -170 -424 -51 -53 -166 -133 -238 -165 -23 -10 -42 -22 -42 -25 0 -3
98 -52 217 -108 l217 -101 41 20 c289 147 427 368 460 738 4 41 7 383 8 760
l2 685 -236 3 c-129 1 -238 -1 -242 -4z"/>
</g>
</svg>
