<?xml version="1.0" standalone="no"?>
<!DOCTYPE svg PUBLIC "-//W3C//DTD SVG 20010904//EN"
 "http://www.w3.org/TR/2001/REC-SVG-20010904/DTD/svg10.dtd">
<svg version="1.0" xmlns="http://www.w3.org/2000/svg"
 width="300.000000pt" height="300.000000pt" viewBox="0 0 300.000000 300.000000"
 preserveAspectRatio="xMidYMid meet">
<metadata>
Created by potrace 1.10, written by Peter Selinger 2001-2011
</metadata>
<g transform="translate(0.000000,300.000000) scale(0.100000,-0.100000)"
fill="#000000" stroke="none">
<path d="M1325 2954 c-361 -55 -637 -187 -871 -419 -237 -234 -377 -503 -436
-835 -19 -112 -16 -383 6 -505 52 -285 188 -549 395 -767 150 -158 319 -274
515 -352 108 -44 147 -46 175 -10 19 24 21 40 21 173 l0 146 -153 0 c-146 0
-154 1 -209 28 -65 32 -126 96 -147 152 -33 93 -97 179 -164 221 -46 30 -68
71 -46 85 40 25 147 -7 217 -66 19 -16 54 -59 78 -96 49 -73 110 -122 178
-140 44 -12 147 -4 204 15 31 11 37 19 58 80 12 36 34 82 48 101 l26 34 -37 7
c-223 39 -341 87 -446 184 -100 92 -167 245 -187 431 -22 198 16 359 112 482
l30 37 -17 85 c-10 53 -14 101 -10 132 10 70 35 166 48 182 26 30 196 -23 342
-108 l71 -40 99 21 c143 31 407 31 549 0 l100 -21 85 48 c107 60 207 100 271
108 46 5 49 4 63 -24 9 -16 23 -70 32 -119 16 -82 16 -94 1 -174 l-17 -86 45
-66 c87 -131 116 -264 97 -445 -28 -269 -125 -431 -316 -529 -91 -47 -152 -68
-245 -84 -36 -6 -75 -13 -88 -16 l-23 -5 25 -32 c58 -76 60 -90 66 -398 5
-264 7 -289 24 -308 27 -30 70 -27 172 15 466 187 820 622 910 1119 22 122 25
393 6 505 -86 488 -382 889 -817 1108 -204 102 -376 142 -630 147 -99 2 -193
1 -210 -1z"/>
</g>
</svg>
