<svg width="79" height="78" viewBox="0 0 79 78" fill="none" xmlns="http://www.w3.org/2000/svg">
<g filter="url(#filter0_d)">
<path d="M36.9711 5.51387C19.0998 5.50665 4.625 19.9742 4.625 37.8311C4.625 51.9518 13.6799 63.9552 26.2902 68.3634C27.9885 68.7897 27.7283 67.5829 27.7283 66.7591V61.1585C17.9219 62.3075 17.5244 55.8181 16.8668 54.7341C15.5371 52.4649 12.3936 51.8868 13.333 50.8028C15.566 49.6538 17.8424 51.0919 20.4801 54.987C22.3879 57.8126 26.1096 57.3356 27.9957 56.8659C28.4076 55.1677 29.2893 53.6501 30.5033 52.4721C20.3428 50.651 16.108 44.4506 16.108 37.0795C16.108 33.5024 17.2859 30.2143 19.5984 27.5621C18.1242 23.1901 19.7357 19.4467 19.9525 18.8903C24.1512 18.5145 28.516 21.8965 28.8557 22.1639C31.2404 21.5207 33.9648 21.1811 37.0145 21.1811C40.0785 21.1811 42.8102 21.5352 45.2166 22.1856C46.0332 21.5641 50.0801 18.659 53.9824 19.0131C54.192 19.5696 55.7674 23.2262 54.3799 27.5405C56.7213 30.1999 57.9137 33.5168 57.9137 37.1012C57.9137 44.4868 53.65 50.6944 43.4605 52.4866C44.3333 53.3449 45.0263 54.3685 45.499 55.4976C45.9718 56.6267 46.2148 57.8387 46.2139 59.0628V67.1927C46.2717 67.8431 46.2139 68.4862 47.2978 68.4862C60.0961 64.172 69.31 52.0819 69.31 37.8383C69.31 19.9742 54.8279 5.51387 36.9711 5.51387Z" fill="#563D7C"/>
</g>
<defs>
<filter id="filter0_d" x="0" y="0" width="83" height="83" filterUnits="userSpaceOnUse" color-interpolation-filters="sRGB">
<feFlood flood-opacity="0" result="BackgroundImageFix"/>
<feColorMatrix in="SourceAlpha" type="matrix" values="0 0 0 0 0 0 0 0 0 0 0 0 0 0 0 0 0 0 127 0"/>
<feOffset dx="5" dy="5"/>
<feGaussianBlur stdDeviation="2"/>
<feColorMatrix type="matrix" values="0 0 0 0 0 0 0 0 0 0 0 0 0 0 0 0 0 0 0.25 0"/>
<feBlend mode="normal" in2="BackgroundImageFix" result="effect1_dropShadow"/>
<feBlend mode="normal" in="SourceGraphic" in2="effect1_dropShadow" result="shape"/>
</filter>
</defs>
</svg>
