<?xml version="1.0" standalone="no"?>
<!DOCTYPE svg PUBLIC "-//W3C//DTD SVG 20010904//EN"
 "http://www.w3.org/TR/2001/REC-SVG-20010904/DTD/svg10.dtd">
<svg version="1.0" xmlns="http://www.w3.org/2000/svg"
 width="225.000000pt" height="225.000000pt" viewBox="0 0 225.000000 225.000000"
 preserveAspectRatio="xMidYMid meet">
<metadata>
Created by potrace 1.10, written by Peter Selinger 2001-2011
</metadata>
<g transform="translate(0.000000,225.000000) scale(0.100000,-0.100000)"
fill="#000000" stroke="none">
<path d="M1329 2248 c0 -2 -2 -39 -4 -83 -5 -155 -50 -220 -235 -350 -120 -84
-210 -177 -250 -258 -30 -61 -32 -73 -28 -134 3 -45 14 -87 33 -126 50 -107
205 -277 240 -264 10 5 4 26 -26 96 -49 114 -79 229 -79 301 0 50 4 61 35 98
20 22 85 82 145 132 60 50 129 113 154 140 106 119 128 253 62 396 -14 30 -30
54 -35 54 -6 0 -11 -1 -12 -2z"/>
<path d="M1413 1725 c-137 -69 -238 -145 -278 -209 -26 -43 -30 -58 -29 -117
2 -78 28 -143 93 -228 47 -62 50 -87 21 -163 -12 -32 -16 -56 -11 -61 14 -14
84 45 120 100 67 100 63 161 -15 293 -24 41 -44 85 -44 98 0 55 77 147 232
276 54 45 65 66 33 66 -7 0 -62 -25 -122 -55z"/>
<path d="M1662 1039 c-29 -12 -51 -26 -49 -32 2 -6 32 -16 68 -24 71 -14 107
-36 128 -77 11 -24 11 -33 -4 -67 -17 -37 -123 -146 -195 -201 -25 -19 -32
-29 -24 -37 8 -9 31 -5 90 13 148 47 253 127 275 210 21 79 -23 186 -91 221
-41 21 -134 18 -198 -6z"/>
<path d="M655 1020 c-124 -19 -185 -53 -185 -103 0 -27 42 -71 85 -87 157 -60
553 -63 780 -5 149 38 259 94 241 124 -4 6 -18 6 -38 0 -49 -14 -288 -37 -443
-43 -151 -6 -413 8 -427 22 -11 11 65 45 140 62 32 7 52 17 52 26 0 11 -17 14
-77 13 -43 -1 -100 -5 -128 -9z"/>
<path d="M700 754 c-93 -40 -95 -91 -4 -137 109 -55 380 -61 639 -13 151 28
190 40 180 56 -4 6 -28 25 -55 43 l-49 33 -88 -18 c-167 -34 -482 -41 -555
-13 -22 9 -23 24 -3 31 23 9 18 34 -7 34 -13 -1 -39 -8 -58 -16z"/>
<path d="M775 531 c-101 -25 -114 -106 -25 -151 100 -51 384 -70 541 -36 107
23 184 50 187 67 1 8 -25 30 -63 52 l-64 37 -88 -16 c-98 -17 -290 -20 -372
-4 -30 5 -56 10 -58 10 -3 0 -3 6 0 14 5 13 -11 37 -22 35 -4 -1 -19 -4 -36
-8z"/>
<path d="M520 369 c-193 -23 -269 -77 -210 -151 40 -52 159 -81 388 -97 374
-26 766 3 987 73 96 31 141 57 157 91 10 22 8 30 -9 53 -23 31 -37 32 -41 3
-5 -31 -23 -40 -138 -66 -317 -72 -842 -81 -1116 -19 -37 9 -70 19 -73 24 -8
13 27 29 108 49 50 12 73 23 75 34 4 19 -7 20 -128 6z"/>
<path d="M1860 204 c-67 -42 -208 -89 -321 -105 -54 -8 -232 -13 -501 -13
-229 -1 -419 -4 -423 -8 -36 -36 422 -86 683 -74 383 18 568 73 628 188 31 59
12 62 -66 12z"/>
</g>
</svg>
