<?xml version="1.0" ?><!DOCTYPE svg  PUBLIC '-//W3C//DTD SVG 1.1//EN'  'http://www.w3.org/Graphics/SVG/1.1/DTD/svg11.dtd'><svg height="512px" style="enable-background:new 0 0 512 512;" version="1.1" viewBox="0 0 512 512" width="512px" xml:space="preserve" xmlns="http://www.w3.org/2000/svg" xmlns:xlink="http://www.w3.org/1999/xlink"><g id="comp_x5F_256-php"><g><g><path d="M182.063,246.043c-5.677,29.109-25.731,26.09-50.384,26.09l9.847-50.744C168.839,221.39,187.382,218.443,182.063,246.043     L182.063,246.043z M95.239,323.523h26.378l6.254-32.199c29.54,0,47.868,2.157,64.83-13.728     c18.759-17.251,23.646-47.941,10.278-63.322c-6.97-8.05-18.184-12.003-33.421-12.003h-50.816L95.239,323.523z M228.709,170     h26.235l-6.253,32.199c22.64,0,43.628-1.653,53.763,7.691c10.638,9.775,5.535,22.281-5.966,81.291h-26.594     c11.069-57.068,13.154-61.812,9.128-66.125c-3.88-4.168-12.722-3.306-34.069-3.306l-13.513,69.431h-26.235L228.709,170     L228.709,170z M388.201,246.043c-5.751,29.542-26.379,26.09-50.385,26.09l9.847-50.744     C375.119,221.39,393.52,218.443,388.201,246.043z M301.377,323.523h26.449l6.254-32.199c31.049,0,48.227,1.796,64.83-13.728     c18.759-17.251,23.646-47.941,10.279-63.322c-6.974-8.05-18.186-12.003-33.423-12.003H324.95L301.377,323.523z"/></g><path d="    M256.001,135.034c-127.003,0-230,54.121-230,120.965s102.997,120.967,230,120.967c127.003,0,229.998-54.123,229.998-120.967    S383.004,135.034,256.001,135.034z" style="fill:none;stroke:#000000;stroke-width:20;stroke-linecap:round;stroke-linejoin:round;stroke-miterlimit:10;"/></g></g><g id="Layer_1"/></svg>