<?xml version="1.0" standalone="no"?>
<!DOCTYPE svg PUBLIC "-//W3C//DTD SVG 20010904//EN"
 "http://www.w3.org/TR/2001/REC-SVG-20010904/DTD/svg10.dtd">
<svg version="1.0" xmlns="http://www.w3.org/2000/svg"
 width="300.000000pt" height="300.000000pt" viewBox="0 0 300.000000 300.000000"
 preserveAspectRatio="xMidYMid meet">
<metadata>
Created by potrace 1.10, written by Peter Selinger 2001-2011
</metadata>
<g transform="translate(0.000000,300.000000) scale(0.100000,-0.100000)"
fill="#000000" stroke="none">
<path d="M1360 2994 c-14 -2 -59 -9 -100 -15 -228 -34 -434 -147 -489 -269
-18 -40 -21 -66 -21 -217 l0 -173 375 0 375 0 0 -35 0 -35 -582 0 c-565 0
-584 -1 -628 -21 -121 -55 -228 -247 -271 -489 -18 -98 -18 -382 0 -480 43
-242 150 -434 271 -489 40 -18 66 -21 218 -21 l172 0 0 116 c0 64 7 163 15
220 41 272 131 383 351 429 61 13 167 19 459 25 411 9 462 15 558 68 81 44
127 122 159 266 17 78 21 141 25 434 5 313 4 347 -13 390 -46 121 -227 229
-464 277 -73 15 -359 28 -410 19z m-185 -265 c66 -59 66 -150 -1 -208 -85 -75
-224 -12 -224 102 0 81 58 137 142 137 39 0 54 -6 83 -31z"/>
<path d="M2317 2088 c-9 -249 -47 -385 -136 -480 -109 -119 -255 -147 -756
-148 -368 -1 -451 -17 -540 -104 -37 -36 -59 -68 -75 -111 -44 -119 -51 -192
-57 -553 -5 -313 -4 -347 13 -390 47 -126 244 -238 494 -283 98 -18 382 -18
480 0 242 43 434 150 489 271 18 40 21 66 21 218 l0 172 -375 0 -375 0 0 35 0
35 583 0 c564 0 583 1 627 21 92 42 182 170 233 334 40 130 52 218 52 395 0
177 -12 265 -52 395 -51 164 -141 292 -233 334 -40 18 -66 21 -216 21 l-171 0
-6 -162z m-330 -1598 c86 -52 82 -189 -6 -235 -17 -8 -50 -15 -75 -15 -36 0
-52 6 -80 31 -67 58 -67 149 -1 208 29 25 44 31 83 31 29 0 59 -8 79 -20z"/>
</g>
</svg>
