<?xml version="1.0" standalone="no"?>
<!DOCTYPE svg PUBLIC "-//W3C//DTD SVG 20010904//EN"
 "http://www.w3.org/TR/2001/REC-SVG-20010904/DTD/svg10.dtd">
<svg version="1.0" xmlns="http://www.w3.org/2000/svg"
 width="300.000000pt" height="300.000000pt" viewBox="0 0 300.000000 300.000000"
 preserveAspectRatio="xMidYMid meet">
<metadata>
Created by potrace 1.10, written by Peter Selinger 2001-2011
</metadata>
<g transform="translate(0.000000,300.000000) scale(0.100000,-0.100000)"
fill="#000000" stroke="none">
<path d="M795 2818 c-82 -29 -152 -107 -187 -208 -20 -58 -23 -84 -23 -235 0
-156 12 -258 41 -356 4 -13 -10 -21 -65 -38 -253 -77 -462 -215 -528 -349 -23
-47 -28 -70 -28 -132 0 -97 26 -152 114 -241 96 -95 235 -171 443 -239 60 -19
67 -24 63 -43 -28 -117 -37 -183 -42 -312 -6 -169 2 -230 46 -321 36 -74 81
-120 149 -152 48 -22 64 -24 145 -20 75 4 106 11 169 37 95 40 230 129 327
215 41 36 77 66 81 66 4 0 40 -30 81 -66 97 -86 232 -175 327 -215 63 -26 94
-33 169 -37 81 -4 97 -2 145 20 68 32 113 78 149 152 44 91 52 152 46 321 -5
129 -14 195 -42 312 -5 19 5 25 104 58 250 83 425 204 493 343 32 64 32 176 1
245 -62 136 -276 280 -531 357 -64 20 -71 24 -67 43 29 118 37 184 42 317 4
125 2 167 -11 220 -23 89 -50 142 -97 188 -54 54 -102 75 -183 80 -160 10
-319 -62 -533 -242 l-93 -78 -92 78 c-205 172 -357 245 -507 243 -42 0 -89 -5
-106 -11z m277 -155 c85 -41 205 -125 293 -205 l49 -45 -61 -69 c-34 -38 -93
-109 -130 -159 l-69 -90 -104 -12 c-58 -7 -149 -21 -202 -31 l-97 -19 -15 69
c-54 238 -43 448 29 544 59 78 168 84 307 17z m1131 14 c61 -46 97 -157 97
-296 0 -69 -21 -227 -40 -303 l-11 -45 -97 19 c-53 10 -144 24 -202 31 l-104
12 -69 90 c-37 50 -96 121 -130 159 l-61 69 49 45 c236 214 460 301 568 219z
m-662 -400 c58 -67 129 -155 129 -161 0 -3 -76 -6 -170 -6 -93 0 -170 3 -170
6 0 3 28 39 63 80 34 42 71 86 81 100 11 13 22 24 24 24 3 0 22 -20 43 -43z
m244 -323 c34 -39 139 -212 204 -336 l62 -117 -27 -53 c-75 -150 -222 -391
-252 -416 -23 -17 -521 -17 -544 0 -30 25 -177 266 -252 415 l-26 53 34 69
c50 98 141 254 198 338 l48 72 103 4 c56 2 176 1 267 -1 159 -4 166 -5 185
-28z m-725 0 c0 -3 -8 -18 -19 -32 -10 -15 -50 -82 -89 -149 l-70 -123 -17 43
c-38 93 -75 211 -68 218 5 4 60 16 123 27 132 23 140 24 140 16z m1035 -20
c55 -9 103 -20 108 -23 7 -7 -25 -113 -65 -208 l-21 -52 -70 122 c-38 67 -78
134 -88 149 -25 35 -24 41 9 34 15 -3 72 -12 127 -22z m-1396 -152 c18 -53 51
-139 73 -189 l40 -93 -41 -95 c-22 -52 -55 -136 -72 -187 -18 -51 -33 -94 -35
-96 -5 -7 -190 60 -267 97 -101 49 -177 105 -225 167 -34 43 -37 52 -37 114 0
57 4 73 29 109 58 83 212 177 397 241 46 15 89 29 94 29 6 1 25 -43 44 -97z
m1791 47 c135 -51 239 -111 305 -176 60 -59 79 -104 73 -174 -12 -118 -176
-242 -438 -330 -51 -17 -93 -29 -94 -27 -2 2 -17 45 -35 96 -17 51 -50 135
-72 187 l-41 95 40 93 c22 50 55 136 73 190 39 114 21 109 189 46z m-1491
-679 c70 -118 67 -112 39 -106 -12 3 -69 13 -125 22 -56 9 -106 20 -113 24
-12 7 -2 41 52 184 l30 79 30 -54 c17 -30 56 -97 87 -149z m1169 70 c45 -127
45 -128 25 -134 -27 -9 -247 -45 -251 -42 -1 2 19 39 46 82 27 44 66 111 88
151 45 83 41 86 92 -57z m-1297 -275 c47 -8 130 -21 184 -28 l99 -12 74 -95
c40 -52 99 -124 130 -159 l56 -64 -49 -44 c-135 -121 -261 -201 -364 -233 -82
-26 -126 -25 -181 3 -104 52 -142 224 -105 469 22 146 34 189 54 184 9 -3 55
-12 102 -21z m1388 -21 c55 -217 52 -430 -7 -539 -31 -57 -92 -95 -153 -95
-113 0 -286 94 -464 253 l-49 44 56 64 c31 35 90 107 130 159 l74 95 100 12
c55 7 142 21 194 32 52 10 98 19 101 20 4 0 12 -20 18 -45z m-597 -51 c-13
-22 -156 -192 -162 -192 -6 0 -164 187 -168 200 -2 5 64 9 168 9 157 0 170 -1
162 -17z"/>
<path d="M1416 1754 c-70 -22 -149 -103 -170 -174 -20 -67 -20 -93 0 -160 30
-101 149 -190 254 -190 135 0 270 135 270 270 0 105 -89 224 -190 254 -65 19
-100 19 -164 0z"/>
</g>
</svg>
