<?xml version="1.0" standalone="no"?>
<!DOCTYPE svg PUBLIC "-//W3C//DTD SVG 20010904//EN"
 "http://www.w3.org/TR/2001/REC-SVG-20010904/DTD/svg10.dtd">
<svg version="1.0" xmlns="http://www.w3.org/2000/svg"
 width="300.000000pt" height="300.000000pt" viewBox="0 0 300.000000 300.000000"
 preserveAspectRatio="xMidYMid meet">
<metadata>
Created by potrace 1.10, written by Peter Selinger 2001-2011
</metadata>
<g transform="translate(0.000000,300.000000) scale(0.100000,-0.100000)"
fill="#000000" stroke="none">
<path d="M212 2583 c12 -21 65 -113 119 -204 54 -91 160 -273 236 -405 77
-131 236 -405 355 -609 119 -203 295 -505 391 -670 96 -165 180 -300 187 -300
7 0 91 135 187 300 96 165 272 467 391 670 119 204 278 478 355 609 76 132
182 314 236 405 54 91 107 183 119 204 l21 37 -492 0 -493 0 -159 -255 c-87
-140 -162 -255 -166 -255 -3 0 -17 21 -31 48 -26 50 -102 192 -191 357 l-53
100 -517 3 -516 2 21 -37z m641 -180 c20 -32 459 -796 528 -919 73 -132 112
-194 119 -194 7 0 46 62 119 194 69 123 508 887 528 919 l23 37 148 0 c82 0
151 -3 155 -6 5 -6 -21 -53 -276 -489 -77 -132 -208 -357 -292 -500 -324 -557
-400 -685 -405 -685 -5 0 -81 128 -405 685 -84 143 -215 368 -292 500 -255
436 -281 483 -276 489 4 3 73 6 155 6 l148 0 23 -37z"/>
</g>
</svg>
