<?xml version="1.0" standalone="no"?>
<!DOCTYPE svg PUBLIC "-//W3C//DTD SVG 20010904//EN"
 "http://www.w3.org/TR/2001/REC-SVG-20010904/DTD/svg10.dtd">
<svg version="1.0" xmlns="http://www.w3.org/2000/svg"
 width="300.000000pt" height="307.000000pt" viewBox="0 0 300.000000 307.000000"
 preserveAspectRatio="xMidYMid meet">
<metadata>
Created by potrace 1.10, written by Peter Selinger 2001-2011
</metadata>
<g transform="translate(0.000000,307.000000) scale(0.100000,-0.100000)"
fill="#000000" stroke="none">
<path d="M1310 2960 c-316 -39 -606 -178 -837 -403 -665 -646 -564 -1721 210
-2240 419 -281 987 -314 1443 -84 267 134 509 378 645 649 217 433 193 984
-61 1393 -216 347 -551 582 -948 664 -119 25 -338 35 -452 21z m418 -156 c117
-24 246 -70 353 -126 97 -50 269 -171 269 -189 0 -5 -14 -9 -30 -9 -61 0 -136
-55 -173 -125 -27 -53 -28 -143 -3 -210 11 -27 39 -84 64 -125 80 -134 91
-157 118 -236 24 -68 28 -95 28 -194 0 -121 -16 -201 -70 -354 -14 -39 -52
-160 -85 -270 -51 -170 -77 -246 -79 -226 0 3 -103 313 -230 689 -126 376
-230 689 -230 696 0 9 27 15 85 20 68 5 87 11 95 25 14 27 12 46 -6 65 -14 14
-34 15 -153 8 -170 -10 -278 -10 -458 0 l-142 7 -16 -24 c-15 -23 -11 -54 9
-68 5 -4 43 -10 83 -13 40 -4 76 -12 81 -19 5 -6 25 -56 45 -111 19 -55 63
-176 97 -269 l61 -168 -142 -425 c-78 -234 -145 -421 -149 -416 -8 8 -470
1378 -470 1393 0 4 37 11 83 15 92 8 107 15 107 55 0 44 -19 52 -112 46 -229
-15 -368 -18 -368 -9 0 18 95 139 165 209 202 202 484 340 765 374 100 12 313
4 408 -16z m965 -814 c67 -174 81 -252 81 -460 1 -250 -26 -374 -130 -585 -67
-136 -156 -256 -271 -366 -81 -76 -229 -187 -238 -177 -2 2 23 80 55 173 69
202 221 641 292 845 94 269 106 307 117 361 19 93 19 101 20 234 l1 130 18
-30 c10 -16 35 -73 55 -125z m-2185 -530 c116 -316 231 -633 257 -705 26 -71
69 -190 96 -264 27 -74 49 -136 49 -138 0 -9 -134 69 -195 112 -197 140 -374
371 -460 599 -90 243 -107 521 -45 768 27 108 70 222 80 211 4 -4 103 -267
218 -583z m1196 -602 c109 -299 201 -548 203 -554 5 -14 -58 -36 -172 -61 -86
-18 -355 -25 -450 -10 -64 9 -164 33 -171 40 -3 3 12 59 34 124 54 156 220
640 284 823 27 80 52 153 55 163 3 9 8 17 12 17 4 0 96 -244 205 -542z"/>
</g>
</svg>
