<svg width="78" height="78" viewBox="0 0 78 78" fill="none" xmlns="http://www.w3.org/2000/svg">
<g filter="url(#filter0_d)">
<path d="M37.2775 8.9725C31.08 2.775 21.7992 1.51084 14.3375 5.14917L25.53 16.3417C26.7325 17.5442 26.7325 19.4867 25.53 20.6892L20.6275 25.5917C19.425 26.825 17.4825 26.825 16.28 25.5917L5.08751 14.3992C1.48001 21.8917 2.74418 31.1108 8.94168 37.3083C11.6706 40.0287 15.1252 41.9056 18.8925 42.7149C22.6598 43.5241 26.5805 43.2314 30.1858 41.8717L54.7292 66.415C55.4781 67.1699 56.3691 67.7691 57.3508 68.178C58.3325 68.5869 59.3853 68.7975 60.4488 68.7975C61.5122 68.7975 62.5651 68.5869 63.5467 68.178C64.5284 67.7691 65.4194 67.1699 66.1683 66.415C66.9233 65.666 67.5225 64.775 67.9314 63.7934C68.3403 62.8117 68.5508 61.7588 68.5508 60.6954C68.5508 59.632 68.3403 58.5791 67.9314 57.5974C67.5225 56.6158 66.9233 55.7248 66.1683 54.9758L41.7483 30.525C44.585 23.31 43.105 14.8 37.2775 8.9725Z" fill="#563D7C"/>
</g>
<defs>
<filter id="filter0_d" x="0" y="0" width="83" height="83" filterUnits="userSpaceOnUse" color-interpolation-filters="sRGB">
<feFlood flood-opacity="0" result="BackgroundImageFix"/>
<feColorMatrix in="SourceAlpha" type="matrix" values="0 0 0 0 0 0 0 0 0 0 0 0 0 0 0 0 0 0 127 0"/>
<feOffset dx="5" dy="5"/>
<feGaussianBlur stdDeviation="2"/>
<feColorMatrix type="matrix" values="0 0 0 0 0 0 0 0 0 0 0 0 0 0 0 0 0 0 0.25 0"/>
<feBlend mode="normal" in2="BackgroundImageFix" result="effect1_dropShadow"/>
<feBlend mode="normal" in="SourceGraphic" in2="effect1_dropShadow" result="shape"/>
</filter>
</defs>
</svg>
